<svg width="24" height="24" viewBox="0 0 24 24" fill="none" xmlns="http://www.w3.org/2000/svg">
<g clip-path="url(#clip0_142_482)">
<path d="M11.9572 24.0078L11.2601 23.4103C10.2992 22.6056 1.9082 15.3589 1.9082 10.058C1.9082 4.50814 6.40731 0.0090332 11.9572 0.0090332C17.5071 0.0090332 22.0062 4.50814 22.0062 10.058C22.0062 15.3589 13.6153 22.6056 12.6583 23.4142L11.9572 24.0078ZM11.9572 2.18192C7.60942 2.18685 4.08606 5.71021 4.08114 10.058C4.08114 13.3881 9.24358 18.7078 11.9572 21.1427C14.6709 18.7069 19.8333 13.3841 19.8333 10.058C19.8284 5.71021 16.3051 2.18689 11.9572 2.18192Z" fill="white"/>
<path d="M11.958 14.041C9.75802 14.041 7.97461 12.2576 7.97461 10.0577C7.97461 7.85775 9.75802 6.07434 11.958 6.07434C14.1579 6.07434 15.9413 7.85775 15.9413 10.0577C15.9413 12.2576 14.1579 14.041 11.958 14.041ZM11.958 8.06597C10.858 8.06597 9.96628 8.95767 9.96628 10.0576C9.96628 11.1576 10.858 12.0493 11.958 12.0493C13.0579 12.0493 13.9496 11.1576 13.9496 10.0576C13.9496 8.95767 13.058 8.06597 11.958 8.06597Z" fill="white"/>
</g>
<defs>
<clipPath id="clip0_142_482">
<rect width="24" height="24" fill="white"/>
</clipPath>
</defs>
</svg>
