<svg width="45" height="45" viewBox="0 0 45 45" fill="none" xmlns="http://www.w3.org/2000/svg">
<g clip-path="url(#clip0_144_503)">
<path d="M45 5.625H7.95375L7.875 4.96688C7.71384 3.59891 7.05635 2.33762 6.02717 1.42215C4.99799 0.506669 3.66868 0.000640863 2.29125 0L0 0V3.75H2.29125C2.7505 3.75006 3.19376 3.91867 3.53695 4.22384C3.88014 4.52901 4.09939 4.94953 4.15312 5.40562L7.125 30.6581C7.28616 32.0261 7.94365 33.2874 8.97283 34.2029C10.002 35.1183 11.3313 35.6244 12.7087 35.625H37.5V31.875H12.7087C12.2492 31.8749 11.8057 31.706 11.4625 31.4005C11.1193 31.0949 10.9002 30.6739 10.8469 30.2175L10.6012 28.125H40.9425L45 5.625ZM37.8075 24.375H10.1606L8.39625 9.375H40.5131L37.8075 24.375Z" fill="#222222" fill-opacity="0.9"/>
<path d="M13.125 45.0012C15.1961 45.0012 16.875 43.3223 16.875 41.2512C16.875 39.1801 15.1961 37.5012 13.125 37.5012C11.0539 37.5012 9.375 39.1801 9.375 41.2512C9.375 43.3223 11.0539 45.0012 13.125 45.0012Z" fill="#222222" fill-opacity="0.9"/>
<path d="M31.875 45.0012C33.9461 45.0012 35.625 43.3223 35.625 41.2512C35.625 39.1801 33.9461 37.5012 31.875 37.5012C29.8039 37.5012 28.125 39.1801 28.125 41.2512C28.125 43.3223 29.8039 45.0012 31.875 45.0012Z" fill="#222222" fill-opacity="0.9"/>
</g>
<defs>
<clipPath id="clip0_144_503">
<rect width="45" height="45" fill="white"/>
</clipPath>
</defs>
</svg>
